<svg width="428" height="762" viewBox="0 0 428 762" fill="none" xmlns="http://www.w3.org/2000/svg">
<g clip-path="url(#clip0_95_689)">
<rect width="428" height="762" fill="#F4E8DE"/>
<g clip-path="url(#clip1_95_689)">
<g filter="url(#filter0_d_95_689)">
<rect x="12" y="129" width="404" height="48" fill="#F4E8DE"/>
</g>
<path d="M389.25 144C389.25 143.586 389.586 143.25 390 143.25H394C394.414 143.25 394.75 143.586 394.75 144V144.75H399C399.414 144.75 399.75 145.086 399.75 145.5C399.75 145.914 399.414 146.25 399 146.25H385C384.586 146.25 384.25 145.914 384.25 145.5C384.25 145.086 384.586 144.75 385 144.75H389.25V144Z" fill="#332317"/>
<path fill-rule="evenodd" clip-rule="evenodd" d="M386.24 148.945C386.268 148.692 386.482 148.5 386.737 148.5H397.263C397.518 148.5 397.732 148.692 397.76 148.945L397.96 150.746C398.321 153.993 398.321 157.27 397.96 160.517L397.941 160.694C397.809 161.877 396.893 162.82 395.714 162.985C393.25 163.33 390.75 163.33 388.286 162.985C387.107 162.82 386.191 161.877 386.059 160.694L386.04 160.517C385.679 157.27 385.679 153.993 386.04 150.746L386.24 148.945ZM390.75 152.4C390.75 151.986 390.414 151.65 390 151.65C389.586 151.65 389.25 151.986 389.25 152.4L389.25 159.4C389.25 159.814 389.586 160.15 390 160.15C390.414 160.15 390.75 159.814 390.75 159.4L390.75 152.4ZM394.75 152.4C394.75 151.986 394.414 151.65 394 151.65C393.586 151.65 393.25 151.986 393.25 152.4V159.4C393.25 159.814 393.586 160.15 394 160.15C394.414 160.15 394.75 159.814 394.75 159.4V152.4Z" fill="#332317"/>
<g clip-path="url(#clip2_95_689)">
<path d="M182.055 151.602H183.086C183.591 151.602 184.008 151.518 184.336 151.352C184.669 151.18 184.917 150.948 185.078 150.656C185.245 150.359 185.328 150.026 185.328 149.656C185.328 149.219 185.255 148.852 185.109 148.555C184.964 148.258 184.745 148.034 184.453 147.883C184.161 147.732 183.792 147.656 183.344 147.656C182.938 147.656 182.578 147.737 182.266 147.898C181.958 148.055 181.716 148.279 181.539 148.57C181.367 148.862 181.281 149.206 181.281 149.602H179.836C179.836 149.023 179.982 148.497 180.273 148.023C180.565 147.549 180.974 147.172 181.5 146.891C182.031 146.609 182.646 146.469 183.344 146.469C184.031 146.469 184.633 146.591 185.148 146.836C185.664 147.076 186.065 147.435 186.352 147.914C186.638 148.388 186.781 148.979 186.781 149.688C186.781 149.974 186.714 150.281 186.578 150.609C186.448 150.932 186.242 151.234 185.961 151.516C185.685 151.797 185.326 152.029 184.883 152.211C184.44 152.388 183.909 152.477 183.289 152.477H182.055V151.602ZM182.055 152.789V151.922H183.289C184.013 151.922 184.612 152.008 185.086 152.18C185.56 152.352 185.932 152.581 186.203 152.867C186.479 153.154 186.672 153.469 186.781 153.812C186.896 154.151 186.953 154.49 186.953 154.828C186.953 155.359 186.862 155.831 186.68 156.242C186.503 156.654 186.25 157.003 185.922 157.289C185.599 157.576 185.219 157.792 184.781 157.938C184.344 158.083 183.867 158.156 183.352 158.156C182.857 158.156 182.391 158.086 181.953 157.945C181.521 157.805 181.138 157.602 180.805 157.336C180.471 157.065 180.211 156.734 180.023 156.344C179.836 155.948 179.742 155.497 179.742 154.992H181.188C181.188 155.388 181.273 155.734 181.445 156.031C181.622 156.328 181.872 156.56 182.195 156.727C182.523 156.888 182.909 156.969 183.352 156.969C183.794 156.969 184.174 156.893 184.492 156.742C184.815 156.586 185.062 156.352 185.234 156.039C185.411 155.727 185.5 155.333 185.5 154.859C185.5 154.385 185.401 153.997 185.203 153.695C185.005 153.388 184.724 153.161 184.359 153.016C184 152.865 183.576 152.789 183.086 152.789H182.055ZM190.414 156.281V157.445C190.414 157.919 190.294 158.419 190.055 158.945C189.815 159.477 189.479 159.919 189.047 160.273L188.227 159.703C188.393 159.474 188.534 159.24 188.648 159C188.763 158.766 188.849 158.521 188.906 158.266C188.969 158.016 189 157.75 189 157.469V156.281H190.414ZM193.93 152.586L192.773 152.289L193.344 146.625H199.18V147.961H194.57L194.227 151.055C194.435 150.935 194.698 150.823 195.016 150.719C195.339 150.615 195.708 150.562 196.125 150.562C196.651 150.562 197.122 150.654 197.539 150.836C197.956 151.013 198.31 151.268 198.602 151.602C198.898 151.935 199.125 152.336 199.281 152.805C199.438 153.273 199.516 153.797 199.516 154.375C199.516 154.922 199.44 155.424 199.289 155.883C199.143 156.341 198.922 156.742 198.625 157.086C198.328 157.424 197.953 157.688 197.5 157.875C197.052 158.062 196.523 158.156 195.914 158.156C195.456 158.156 195.021 158.094 194.609 157.969C194.203 157.839 193.839 157.643 193.516 157.383C193.198 157.117 192.938 156.789 192.734 156.398C192.536 156.003 192.411 155.539 192.359 155.008H193.734C193.797 155.435 193.922 155.794 194.109 156.086C194.297 156.378 194.542 156.599 194.844 156.75C195.151 156.896 195.508 156.969 195.914 156.969C196.258 156.969 196.562 156.909 196.828 156.789C197.094 156.669 197.318 156.497 197.5 156.273C197.682 156.049 197.82 155.779 197.914 155.461C198.013 155.143 198.062 154.786 198.062 154.391C198.062 154.031 198.013 153.698 197.914 153.391C197.815 153.083 197.667 152.815 197.469 152.586C197.276 152.357 197.039 152.18 196.758 152.055C196.477 151.924 196.154 151.859 195.789 151.859C195.305 151.859 194.938 151.924 194.688 152.055C194.443 152.185 194.19 152.362 193.93 152.586ZM206.953 146.625V158H205.445V146.625H206.953ZM213.82 146.625L209.094 151.93L206.438 154.688L206.188 153.078L208.188 150.875L212.008 146.625H213.82ZM212.367 158L208.156 152.453L209.055 151.258L214.164 158H212.367ZM223.648 152.336V156.5C223.508 156.708 223.284 156.943 222.977 157.203C222.669 157.458 222.245 157.682 221.703 157.875C221.167 158.062 220.474 158.156 219.625 158.156C218.932 158.156 218.294 158.036 217.711 157.797C217.133 157.552 216.63 157.198 216.203 156.734C215.781 156.266 215.453 155.698 215.219 155.031C214.99 154.359 214.875 153.599 214.875 152.75V151.867C214.875 151.018 214.974 150.26 215.172 149.594C215.375 148.927 215.672 148.362 216.062 147.898C216.453 147.43 216.932 147.076 217.5 146.836C218.068 146.591 218.719 146.469 219.453 146.469C220.323 146.469 221.049 146.62 221.633 146.922C222.221 147.219 222.68 147.63 223.008 148.156C223.341 148.682 223.555 149.281 223.648 149.953H222.141C222.073 149.542 221.938 149.167 221.734 148.828C221.536 148.49 221.253 148.219 220.883 148.016C220.513 147.807 220.036 147.703 219.453 147.703C218.927 147.703 218.471 147.799 218.086 147.992C217.701 148.185 217.383 148.461 217.133 148.82C216.883 149.18 216.695 149.615 216.57 150.125C216.451 150.635 216.391 151.211 216.391 151.852V152.75C216.391 153.406 216.466 153.992 216.617 154.508C216.773 155.023 216.995 155.464 217.281 155.828C217.568 156.188 217.909 156.461 218.305 156.648C218.706 156.836 219.148 156.93 219.633 156.93C220.169 156.93 220.604 156.885 220.938 156.797C221.271 156.703 221.531 156.594 221.719 156.469C221.906 156.339 222.049 156.216 222.148 156.102V153.555H219.516V152.336H223.648Z" fill="#332317"/>
<path d="M242.386 158.926C242.63 158.824 242.824 158.63 242.926 158.386C242.977 158.266 243.004 158.136 243.006 158.006V152.006C243.006 151.741 242.901 151.486 242.713 151.299C242.525 151.111 242.271 151.006 242.006 151.006C241.741 151.006 241.486 151.111 241.299 151.299C241.111 151.486 241.006 151.741 241.006 152.006V155.596L232.716 147.296C232.623 147.202 232.512 147.128 232.39 147.077C232.269 147.026 232.138 147 232.006 147C231.874 147 231.743 147.026 231.621 147.077C231.499 147.128 231.389 147.202 231.296 147.296C231.202 147.389 231.128 147.499 231.077 147.621C231.026 147.743 231 147.874 231 148.006C231 148.138 231.026 148.269 231.077 148.39C231.128 148.512 231.202 148.623 231.296 148.716L239.596 157.006H236.006C235.741 157.006 235.486 157.111 235.299 157.299C235.111 157.486 235.006 157.741 235.006 158.006C235.006 158.271 235.111 158.525 235.299 158.713C235.486 158.9 235.741 159.006 236.006 159.006H242.006C242.137 159.004 242.266 158.977 242.386 158.926Z" fill="#970C0C"/>
</g>
<path d="M32.0859 151.406V153.141C32.0859 154.073 32.0026 154.859 31.8359 155.5C31.6693 156.141 31.4297 156.656 31.1172 157.047C30.8047 157.438 30.4271 157.721 29.9844 157.898C29.5469 158.07 29.0521 158.156 28.5 158.156C28.0625 158.156 27.6589 158.102 27.2891 157.992C26.9193 157.883 26.5859 157.708 26.2891 157.469C25.9974 157.224 25.7474 156.906 25.5391 156.516C25.3307 156.125 25.1719 155.651 25.0625 155.094C24.9531 154.536 24.8984 153.885 24.8984 153.141V151.406C24.8984 150.474 24.9818 149.693 25.1484 149.062C25.3203 148.432 25.5625 147.927 25.875 147.547C26.1875 147.161 26.5625 146.885 27 146.719C27.4427 146.552 27.9375 146.469 28.4844 146.469C28.9271 146.469 29.3333 146.523 29.7031 146.633C30.0781 146.737 30.4115 146.906 30.7031 147.141C30.9948 147.37 31.2422 147.677 31.4453 148.062C31.6536 148.443 31.8125 148.909 31.9219 149.461C32.0312 150.013 32.0859 150.661 32.0859 151.406ZM30.6328 153.375V151.164C30.6328 150.654 30.6016 150.206 30.5391 149.82C30.4818 149.43 30.3958 149.096 30.2812 148.82C30.1667 148.544 30.0208 148.32 29.8438 148.148C29.6719 147.977 29.4714 147.852 29.2422 147.773C29.0182 147.69 28.7656 147.648 28.4844 147.648C28.1406 147.648 27.8359 147.714 27.5703 147.844C27.3047 147.969 27.0807 148.169 26.8984 148.445C26.7214 148.721 26.5859 149.083 26.4922 149.531C26.3984 149.979 26.3516 150.523 26.3516 151.164V153.375C26.3516 153.885 26.3802 154.336 26.4375 154.727C26.5 155.117 26.5911 155.456 26.7109 155.742C26.8307 156.023 26.9766 156.255 27.1484 156.438C27.3203 156.62 27.5182 156.755 27.7422 156.844C27.9714 156.927 28.224 156.969 28.5 156.969C28.8542 156.969 29.1641 156.901 29.4297 156.766C29.6953 156.63 29.9167 156.419 30.0938 156.133C30.276 155.841 30.4115 155.469 30.5 155.016C30.5885 154.557 30.6328 154.01 30.6328 153.375ZM41.1172 154.922C41.1172 155.615 40.9557 156.203 40.6328 156.688C40.3151 157.167 39.8828 157.531 39.3359 157.781C38.7943 158.031 38.1823 158.156 37.5 158.156C36.8177 158.156 36.2031 158.031 35.6562 157.781C35.1094 157.531 34.6771 157.167 34.3594 156.688C34.0417 156.203 33.8828 155.615 33.8828 154.922C33.8828 154.469 33.9688 154.055 34.1406 153.68C34.3177 153.299 34.5651 152.969 34.8828 152.688C35.2057 152.406 35.5859 152.19 36.0234 152.039C36.4661 151.883 36.9531 151.805 37.4844 151.805C38.1823 151.805 38.8047 151.94 39.3516 152.211C39.8984 152.477 40.3281 152.844 40.6406 153.312C40.9583 153.781 41.1172 154.318 41.1172 154.922ZM39.6641 154.891C39.6641 154.469 39.5729 154.096 39.3906 153.773C39.2083 153.445 38.9531 153.19 38.625 153.008C38.2969 152.826 37.9167 152.734 37.4844 152.734C37.0417 152.734 36.6589 152.826 36.3359 153.008C36.0182 153.19 35.7708 153.445 35.5938 153.773C35.4167 154.096 35.3281 154.469 35.3281 154.891C35.3281 155.328 35.4141 155.703 35.5859 156.016C35.763 156.323 36.013 156.56 36.3359 156.727C36.6641 156.888 37.0521 156.969 37.5 156.969C37.9479 156.969 38.3333 156.888 38.6562 156.727C38.9792 156.56 39.2266 156.323 39.3984 156.016C39.5755 155.703 39.6641 155.328 39.6641 154.891ZM40.8516 149.586C40.8516 150.138 40.7057 150.635 40.4141 151.078C40.1224 151.521 39.724 151.87 39.2188 152.125C38.7135 152.38 38.1406 152.508 37.5 152.508C36.849 152.508 36.2682 152.38 35.7578 152.125C35.2526 151.87 34.8568 151.521 34.5703 151.078C34.2839 150.635 34.1406 150.138 34.1406 149.586C34.1406 148.924 34.2839 148.362 34.5703 147.898C34.862 147.435 35.2604 147.081 35.7656 146.836C36.2708 146.591 36.8464 146.469 37.4922 146.469C38.1432 146.469 38.7214 146.591 39.2266 146.836C39.7318 147.081 40.1276 147.435 40.4141 147.898C40.7057 148.362 40.8516 148.924 40.8516 149.586ZM39.4062 149.609C39.4062 149.229 39.3255 148.893 39.1641 148.602C39.0026 148.31 38.7786 148.081 38.4922 147.914C38.2057 147.742 37.8724 147.656 37.4922 147.656C37.112 147.656 36.7786 147.737 36.4922 147.898C36.2109 148.055 35.9896 148.279 35.8281 148.57C35.6719 148.862 35.5938 149.208 35.5938 149.609C35.5938 150 35.6719 150.341 35.8281 150.633C35.9896 150.924 36.2135 151.151 36.5 151.312C36.7865 151.474 37.1198 151.555 37.5 151.555C37.8802 151.555 38.2109 151.474 38.4922 151.312C38.7786 151.151 39.0026 150.924 39.1641 150.633C39.3255 150.341 39.4062 150 39.4062 149.609ZM43.125 157.234C43.125 156.99 43.2005 156.784 43.3516 156.617C43.5078 156.445 43.7318 156.359 44.0234 156.359C44.3151 156.359 44.5365 156.445 44.6875 156.617C44.8438 156.784 44.9219 156.99 44.9219 157.234C44.9219 157.474 44.8438 157.677 44.6875 157.844C44.5365 158.01 44.3151 158.094 44.0234 158.094C43.7318 158.094 43.5078 158.01 43.3516 157.844C43.2005 157.677 43.125 157.474 43.125 157.234ZM54.3047 151.406V153.141C54.3047 154.073 54.2214 154.859 54.0547 155.5C53.888 156.141 53.6484 156.656 53.3359 157.047C53.0234 157.438 52.6458 157.721 52.2031 157.898C51.7656 158.07 51.2708 158.156 50.7188 158.156C50.2812 158.156 49.8776 158.102 49.5078 157.992C49.138 157.883 48.8047 157.708 48.5078 157.469C48.2161 157.224 47.9661 156.906 47.7578 156.516C47.5495 156.125 47.3906 155.651 47.2812 155.094C47.1719 154.536 47.1172 153.885 47.1172 153.141V151.406C47.1172 150.474 47.2005 149.693 47.3672 149.062C47.5391 148.432 47.7812 147.927 48.0938 147.547C48.4062 147.161 48.7812 146.885 49.2188 146.719C49.6615 146.552 50.1562 146.469 50.7031 146.469C51.1458 146.469 51.5521 146.523 51.9219 146.633C52.2969 146.737 52.6302 146.906 52.9219 147.141C53.2135 147.37 53.4609 147.677 53.6641 148.062C53.8724 148.443 54.0312 148.909 54.1406 149.461C54.25 150.013 54.3047 150.661 54.3047 151.406ZM52.8516 153.375V151.164C52.8516 150.654 52.8203 150.206 52.7578 149.82C52.7005 149.43 52.6146 149.096 52.5 148.82C52.3854 148.544 52.2396 148.32 52.0625 148.148C51.8906 147.977 51.6901 147.852 51.4609 147.773C51.237 147.69 50.9844 147.648 50.7031 147.648C50.3594 147.648 50.0547 147.714 49.7891 147.844C49.5234 147.969 49.2995 148.169 49.1172 148.445C48.9401 148.721 48.8047 149.083 48.7109 149.531C48.6172 149.979 48.5703 150.523 48.5703 151.164V153.375C48.5703 153.885 48.599 154.336 48.6562 154.727C48.7188 155.117 48.8099 155.456 48.9297 155.742C49.0495 156.023 49.1953 156.255 49.3672 156.438C49.5391 156.62 49.737 156.755 49.9609 156.844C50.1901 156.927 50.4427 156.969 50.7188 156.969C51.0729 156.969 51.3828 156.901 51.6484 156.766C51.9141 156.63 52.1354 156.419 52.3125 156.133C52.4948 155.841 52.6302 155.469 52.7188 155.016C52.8073 154.557 52.8516 154.01 52.8516 153.375ZM63.8516 154.172V155.359H55.6328V154.508L60.7266 146.625H61.9062L60.6406 148.906L57.2734 154.172H63.8516ZM62.2656 146.625V158H60.8203V146.625H62.2656ZM65.3438 157.234C65.3438 156.99 65.4193 156.784 65.5703 156.617C65.7266 156.445 65.9505 156.359 66.2422 156.359C66.5339 156.359 66.7552 156.445 66.9062 156.617C67.0625 156.784 67.1406 156.99 67.1406 157.234C67.1406 157.474 67.0625 157.677 66.9062 157.844C66.7552 158.01 66.5339 158.094 66.2422 158.094C65.9505 158.094 65.7266 158.01 65.5703 157.844C65.4193 157.677 65.3438 157.474 65.3438 157.234ZM76.8359 156.812V158H69.3906V156.961L73.1172 152.812C73.5755 152.302 73.9297 151.87 74.1797 151.516C74.4349 151.156 74.612 150.836 74.7109 150.555C74.8151 150.268 74.8672 149.977 74.8672 149.68C74.8672 149.305 74.7891 148.966 74.6328 148.664C74.4818 148.357 74.2578 148.112 73.9609 147.93C73.6641 147.747 73.3047 147.656 72.8828 147.656C72.3776 147.656 71.9557 147.755 71.6172 147.953C71.2839 148.146 71.0339 148.417 70.8672 148.766C70.7005 149.115 70.6172 149.516 70.6172 149.969H69.1719C69.1719 149.328 69.3125 148.742 69.5938 148.211C69.875 147.68 70.2917 147.258 70.8438 146.945C71.3958 146.628 72.0755 146.469 72.8828 146.469C73.6016 146.469 74.2161 146.596 74.7266 146.852C75.237 147.102 75.6276 147.456 75.8984 147.914C76.1745 148.367 76.3125 148.898 76.3125 149.508C76.3125 149.841 76.2552 150.18 76.1406 150.523C76.0312 150.862 75.8776 151.201 75.6797 151.539C75.487 151.878 75.2604 152.211 75 152.539C74.7448 152.867 74.4714 153.19 74.1797 153.508L71.1328 156.812H76.8359ZM85.5234 151.406V153.141C85.5234 154.073 85.4401 154.859 85.2734 155.5C85.1068 156.141 84.8672 156.656 84.5547 157.047C84.2422 157.438 83.8646 157.721 83.4219 157.898C82.9844 158.07 82.4896 158.156 81.9375 158.156C81.5 158.156 81.0964 158.102 80.7266 157.992C80.3568 157.883 80.0234 157.708 79.7266 157.469C79.4349 157.224 79.1849 156.906 78.9766 156.516C78.7682 156.125 78.6094 155.651 78.5 155.094C78.3906 154.536 78.3359 153.885 78.3359 153.141V151.406C78.3359 150.474 78.4193 149.693 78.5859 149.062C78.7578 148.432 79 147.927 79.3125 147.547C79.625 147.161 80 146.885 80.4375 146.719C80.8802 146.552 81.375 146.469 81.9219 146.469C82.3646 146.469 82.7708 146.523 83.1406 146.633C83.5156 146.737 83.849 146.906 84.1406 147.141C84.4323 147.37 84.6797 147.677 84.8828 148.062C85.0911 148.443 85.25 148.909 85.3594 149.461C85.4688 150.013 85.5234 150.661 85.5234 151.406ZM84.0703 153.375V151.164C84.0703 150.654 84.0391 150.206 83.9766 149.82C83.9193 149.43 83.8333 149.096 83.7188 148.82C83.6042 148.544 83.4583 148.32 83.2812 148.148C83.1094 147.977 82.9089 147.852 82.6797 147.773C82.4557 147.69 82.2031 147.648 81.9219 147.648C81.5781 147.648 81.2734 147.714 81.0078 147.844C80.7422 147.969 80.5182 148.169 80.3359 148.445C80.1589 148.721 80.0234 149.083 79.9297 149.531C79.8359 149.979 79.7891 150.523 79.7891 151.164V153.375C79.7891 153.885 79.8177 154.336 79.875 154.727C79.9375 155.117 80.0286 155.456 80.1484 155.742C80.2682 156.023 80.4141 156.255 80.5859 156.438C80.7578 156.62 80.9557 156.755 81.1797 156.844C81.4089 156.927 81.6615 156.969 81.9375 156.969C82.2917 156.969 82.6016 156.901 82.8672 156.766C83.1328 156.63 83.3542 156.419 83.5312 156.133C83.7135 155.841 83.849 155.469 83.9375 155.016C84.026 154.557 84.0703 154.01 84.0703 153.375ZM94.8359 156.812V158H87.3906V156.961L91.1172 152.812C91.5755 152.302 91.9297 151.87 92.1797 151.516C92.4349 151.156 92.612 150.836 92.7109 150.555C92.8151 150.268 92.8672 149.977 92.8672 149.68C92.8672 149.305 92.7891 148.966 92.6328 148.664C92.4818 148.357 92.2578 148.112 91.9609 147.93C91.6641 147.747 91.3047 147.656 90.8828 147.656C90.3776 147.656 89.9557 147.755 89.6172 147.953C89.2839 148.146 89.0339 148.417 88.8672 148.766C88.7005 149.115 88.6172 149.516 88.6172 149.969H87.1719C87.1719 149.328 87.3125 148.742 87.5938 148.211C87.875 147.68 88.2917 147.258 88.8438 146.945C89.3958 146.628 90.0755 146.469 90.8828 146.469C91.6016 146.469 92.2161 146.596 92.7266 146.852C93.237 147.102 93.6276 147.456 93.8984 147.914C94.1745 148.367 94.3125 148.898 94.3125 149.508C94.3125 149.841 94.2552 150.18 94.1406 150.523C94.0312 150.862 93.8776 151.201 93.6797 151.539C93.487 151.878 93.2604 152.211 93 152.539C92.7448 152.867 92.4714 153.19 92.1797 153.508L89.1328 156.812H94.8359ZM103.836 156.812V158H96.3906V156.961L100.117 152.812C100.576 152.302 100.93 151.87 101.18 151.516C101.435 151.156 101.612 150.836 101.711 150.555C101.815 150.268 101.867 149.977 101.867 149.68C101.867 149.305 101.789 148.966 101.633 148.664C101.482 148.357 101.258 148.112 100.961 147.93C100.664 147.747 100.305 147.656 99.8828 147.656C99.3776 147.656 98.9557 147.755 98.6172 147.953C98.2839 148.146 98.0339 148.417 97.8672 148.766C97.7005 149.115 97.6172 149.516 97.6172 149.969H96.1719C96.1719 149.328 96.3125 148.742 96.5938 148.211C96.875 147.68 97.2917 147.258 97.8438 146.945C98.3958 146.628 99.0755 146.469 99.8828 146.469C100.602 146.469 101.216 146.596 101.727 146.852C102.237 147.102 102.628 147.456 102.898 147.914C103.174 148.367 103.312 148.898 103.312 149.508C103.312 149.841 103.255 150.18 103.141 150.523C103.031 150.862 102.878 151.201 102.68 151.539C102.487 151.878 102.26 152.211 102 152.539C101.745 152.867 101.471 153.19 101.18 153.508L98.1328 156.812H103.836Z" fill="#332317"/>
</g>
<g clip-path="url(#clip3_95_689)">
<g filter="url(#filter1_d_95_689)">
<rect x="12" y="80" width="404" height="48" fill="#F4E8DE"/>
</g>
<path d="M389.25 95C389.25 94.5858 389.586 94.25 390 94.25H394C394.414 94.25 394.75 94.5858 394.75 95V95.75H399C399.414 95.75 399.75 96.0858 399.75 96.5C399.75 96.9142 399.414 97.25 399 97.25H385C384.586 97.25 384.25 96.9142 384.25 96.5C384.25 96.0858 384.586 95.75 385 95.75H389.25V95Z" fill="#332317"/>
<path fill-rule="evenodd" clip-rule="evenodd" d="M386.24 99.9448C386.268 99.6916 386.482 99.5 386.737 99.5H397.263C397.518 99.5 397.732 99.6916 397.76 99.9448L397.96 101.746C398.321 104.993 398.321 108.27 397.96 111.517L397.941 111.694C397.809 112.877 396.893 113.82 395.714 113.985C393.25 114.33 390.75 114.33 388.286 113.985C387.107 113.82 386.191 112.877 386.059 111.694L386.04 111.517C385.679 108.27 385.679 104.993 386.04 101.746L386.24 99.9448ZM390.75 103.4C390.75 102.986 390.414 102.65 390 102.65C389.586 102.65 389.25 102.986 389.25 103.4L389.25 110.4C389.25 110.814 389.586 111.15 390 111.15C390.414 111.15 390.75 110.814 390.75 110.4L390.75 103.4ZM394.75 103.4C394.75 102.986 394.414 102.65 394 102.65C393.586 102.65 393.25 102.986 393.25 103.4V110.4C393.25 110.814 393.586 111.15 394 111.15C394.414 111.15 394.75 110.814 394.75 110.4V103.4Z" fill="#332317"/>
<g clip-path="url(#clip4_95_689)">
<path d="M182.055 102.602H183.086C183.591 102.602 184.008 102.518 184.336 102.352C184.669 102.18 184.917 101.948 185.078 101.656C185.245 101.359 185.328 101.026 185.328 100.656C185.328 100.219 185.255 99.8516 185.109 99.5547C184.964 99.2578 184.745 99.0339 184.453 98.8828C184.161 98.7318 183.792 98.6562 183.344 98.6562C182.938 98.6562 182.578 98.737 182.266 98.8984C181.958 99.0547 181.716 99.2786 181.539 99.5703C181.367 99.862 181.281 100.206 181.281 100.602H179.836C179.836 100.023 179.982 99.4974 180.273 99.0234C180.565 98.5495 180.974 98.1719 181.5 97.8906C182.031 97.6094 182.646 97.4688 183.344 97.4688C184.031 97.4688 184.633 97.5911 185.148 97.8359C185.664 98.0755 186.065 98.4349 186.352 98.9141C186.638 99.388 186.781 99.9792 186.781 100.688C186.781 100.974 186.714 101.281 186.578 101.609C186.448 101.932 186.242 102.234 185.961 102.516C185.685 102.797 185.326 103.029 184.883 103.211C184.44 103.388 183.909 103.477 183.289 103.477H182.055V102.602ZM182.055 103.789V102.922H183.289C184.013 102.922 184.612 103.008 185.086 103.18C185.56 103.352 185.932 103.581 186.203 103.867C186.479 104.154 186.672 104.469 186.781 104.812C186.896 105.151 186.953 105.49 186.953 105.828C186.953 106.359 186.862 106.831 186.68 107.242C186.503 107.654 186.25 108.003 185.922 108.289C185.599 108.576 185.219 108.792 184.781 108.938C184.344 109.083 183.867 109.156 183.352 109.156C182.857 109.156 182.391 109.086 181.953 108.945C181.521 108.805 181.138 108.602 180.805 108.336C180.471 108.065 180.211 107.734 180.023 107.344C179.836 106.948 179.742 106.497 179.742 105.992H181.188C181.188 106.388 181.273 106.734 181.445 107.031C181.622 107.328 181.872 107.56 182.195 107.727C182.523 107.888 182.909 107.969 183.352 107.969C183.794 107.969 184.174 107.893 184.492 107.742C184.815 107.586 185.062 107.352 185.234 107.039C185.411 106.727 185.5 106.333 185.5 105.859C185.5 105.385 185.401 104.997 185.203 104.695C185.005 104.388 184.724 104.161 184.359 104.016C184 103.865 183.576 103.789 183.086 103.789H182.055ZM190.414 107.281V108.445C190.414 108.919 190.294 109.419 190.055 109.945C189.815 110.477 189.479 110.919 189.047 111.273L188.227 110.703C188.393 110.474 188.534 110.24 188.648 110C188.763 109.766 188.849 109.521 188.906 109.266C188.969 109.016 189 108.75 189 108.469V107.281H190.414ZM193.93 103.586L192.773 103.289L193.344 97.625H199.18V98.9609H194.57L194.227 102.055C194.435 101.935 194.698 101.823 195.016 101.719C195.339 101.615 195.708 101.562 196.125 101.562C196.651 101.562 197.122 101.654 197.539 101.836C197.956 102.013 198.31 102.268 198.602 102.602C198.898 102.935 199.125 103.336 199.281 103.805C199.438 104.273 199.516 104.797 199.516 105.375C199.516 105.922 199.44 106.424 199.289 106.883C199.143 107.341 198.922 107.742 198.625 108.086C198.328 108.424 197.953 108.688 197.5 108.875C197.052 109.062 196.523 109.156 195.914 109.156C195.456 109.156 195.021 109.094 194.609 108.969C194.203 108.839 193.839 108.643 193.516 108.383C193.198 108.117 192.938 107.789 192.734 107.398C192.536 107.003 192.411 106.539 192.359 106.008H193.734C193.797 106.435 193.922 106.794 194.109 107.086C194.297 107.378 194.542 107.599 194.844 107.75C195.151 107.896 195.508 107.969 195.914 107.969C196.258 107.969 196.562 107.909 196.828 107.789C197.094 107.669 197.318 107.497 197.5 107.273C197.682 107.049 197.82 106.779 197.914 106.461C198.013 106.143 198.062 105.786 198.062 105.391C198.062 105.031 198.013 104.698 197.914 104.391C197.815 104.083 197.667 103.815 197.469 103.586C197.276 103.357 197.039 103.18 196.758 103.055C196.477 102.924 196.154 102.859 195.789 102.859C195.305 102.859 194.938 102.924 194.688 103.055C194.443 103.185 194.19 103.362 193.93 103.586ZM206.953 97.625V109H205.445V97.625H206.953ZM213.82 97.625L209.094 102.93L206.438 105.688L206.188 104.078L208.188 101.875L212.008 97.625H213.82ZM212.367 109L208.156 103.453L209.055 102.258L214.164 109H212.367ZM223.648 103.336V107.5C223.508 107.708 223.284 107.943 222.977 108.203C222.669 108.458 222.245 108.682 221.703 108.875C221.167 109.062 220.474 109.156 219.625 109.156C218.932 109.156 218.294 109.036 217.711 108.797C217.133 108.552 216.63 108.198 216.203 107.734C215.781 107.266 215.453 106.698 215.219 106.031C214.99 105.359 214.875 104.599 214.875 103.75V102.867C214.875 102.018 214.974 101.26 215.172 100.594C215.375 99.9271 215.672 99.362 216.062 98.8984C216.453 98.4297 216.932 98.0755 217.5 97.8359C218.068 97.5911 218.719 97.4688 219.453 97.4688C220.323 97.4688 221.049 97.6198 221.633 97.9219C222.221 98.2188 222.68 98.6302 223.008 99.1562C223.341 99.6823 223.555 100.281 223.648 100.953H222.141C222.073 100.542 221.938 100.167 221.734 99.8281C221.536 99.4896 221.253 99.2188 220.883 99.0156C220.513 98.8073 220.036 98.7031 219.453 98.7031C218.927 98.7031 218.471 98.7995 218.086 98.9922C217.701 99.1849 217.383 99.4609 217.133 99.8203C216.883 100.18 216.695 100.615 216.57 101.125C216.451 101.635 216.391 102.211 216.391 102.852V103.75C216.391 104.406 216.466 104.992 216.617 105.508C216.773 106.023 216.995 106.464 217.281 106.828C217.568 107.188 217.909 107.461 218.305 107.648C218.706 107.836 219.148 107.93 219.633 107.93C220.169 107.93 220.604 107.885 220.938 107.797C221.271 107.703 221.531 107.594 221.719 107.469C221.906 107.339 222.049 107.216 222.148 107.102V104.555H219.516V103.336H223.648Z" fill="#332317"/>
<path d="M242.386 109.926C242.63 109.824 242.824 109.63 242.926 109.386C242.977 109.266 243.004 109.136 243.006 109.006V103.006C243.006 102.741 242.901 102.486 242.713 102.299C242.525 102.111 242.271 102.006 242.006 102.006C241.741 102.006 241.486 102.111 241.299 102.299C241.111 102.486 241.006 102.741 241.006 103.006V106.596L232.716 98.2958C232.623 98.2021 232.512 98.1277 232.39 98.0769C232.269 98.0261 232.138 98 232.006 98C231.874 98 231.743 98.0261 231.621 98.0769C231.499 98.1277 231.389 98.2021 231.296 98.2958C231.202 98.3888 231.128 98.4994 231.077 98.6212C231.026 98.7431 231 98.8738 231 99.0058C231 99.1378 231.026 99.2685 231.077 99.3904C231.128 99.5122 231.202 99.6228 231.296 99.7158L239.596 108.006H236.006C235.741 108.006 235.486 108.111 235.299 108.299C235.111 108.486 235.006 108.741 235.006 109.006C235.006 109.271 235.111 109.525 235.299 109.713C235.486 109.9 235.741 110.006 236.006 110.006H242.006C242.137 110.004 242.266 109.977 242.386 109.926Z" fill="#970C0C"/>
</g>
<path d="M32.0859 102.406V104.141C32.0859 105.073 32.0026 105.859 31.8359 106.5C31.6693 107.141 31.4297 107.656 31.1172 108.047C30.8047 108.438 30.4271 108.721 29.9844 108.898C29.5469 109.07 29.0521 109.156 28.5 109.156C28.0625 109.156 27.6589 109.102 27.2891 108.992C26.9193 108.883 26.5859 108.708 26.2891 108.469C25.9974 108.224 25.7474 107.906 25.5391 107.516C25.3307 107.125 25.1719 106.651 25.0625 106.094C24.9531 105.536 24.8984 104.885 24.8984 104.141V102.406C24.8984 101.474 24.9818 100.693 25.1484 100.062C25.3203 99.4323 25.5625 98.9271 25.875 98.5469C26.1875 98.1615 26.5625 97.8854 27 97.7188C27.4427 97.5521 27.9375 97.4688 28.4844 97.4688C28.9271 97.4688 29.3333 97.5234 29.7031 97.6328C30.0781 97.737 30.4115 97.9062 30.7031 98.1406C30.9948 98.3698 31.2422 98.6771 31.4453 99.0625C31.6536 99.4427 31.8125 99.9089 31.9219 100.461C32.0312 101.013 32.0859 101.661 32.0859 102.406ZM30.6328 104.375V102.164C30.6328 101.654 30.6016 101.206 30.5391 100.82C30.4818 100.43 30.3958 100.096 30.2812 99.8203C30.1667 99.5443 30.0208 99.3203 29.8438 99.1484C29.6719 98.9766 29.4714 98.8516 29.2422 98.7734C29.0182 98.6901 28.7656 98.6484 28.4844 98.6484C28.1406 98.6484 27.8359 98.7135 27.5703 98.8438C27.3047 98.9688 27.0807 99.1693 26.8984 99.4453C26.7214 99.7214 26.5859 100.083 26.4922 100.531C26.3984 100.979 26.3516 101.523 26.3516 102.164V104.375C26.3516 104.885 26.3802 105.336 26.4375 105.727C26.5 106.117 26.5911 106.456 26.7109 106.742C26.8307 107.023 26.9766 107.255 27.1484 107.438C27.3203 107.62 27.5182 107.755 27.7422 107.844C27.9714 107.927 28.224 107.969 28.5 107.969C28.8542 107.969 29.1641 107.901 29.4297 107.766C29.6953 107.63 29.9167 107.419 30.0938 107.133C30.276 106.841 30.4115 106.469 30.5 106.016C30.5885 105.557 30.6328 105.01 30.6328 104.375ZM41.1172 105.922C41.1172 106.615 40.9557 107.203 40.6328 107.688C40.3151 108.167 39.8828 108.531 39.3359 108.781C38.7943 109.031 38.1823 109.156 37.5 109.156C36.8177 109.156 36.2031 109.031 35.6562 108.781C35.1094 108.531 34.6771 108.167 34.3594 107.688C34.0417 107.203 33.8828 106.615 33.8828 105.922C33.8828 105.469 33.9688 105.055 34.1406 104.68C34.3177 104.299 34.5651 103.969 34.8828 103.688C35.2057 103.406 35.5859 103.19 36.0234 103.039C36.4661 102.883 36.9531 102.805 37.4844 102.805C38.1823 102.805 38.8047 102.94 39.3516 103.211C39.8984 103.477 40.3281 103.844 40.6406 104.312C40.9583 104.781 41.1172 105.318 41.1172 105.922ZM39.6641 105.891C39.6641 105.469 39.5729 105.096 39.3906 104.773C39.2083 104.445 38.9531 104.19 38.625 104.008C38.2969 103.826 37.9167 103.734 37.4844 103.734C37.0417 103.734 36.6589 103.826 36.3359 104.008C36.0182 104.19 35.7708 104.445 35.5938 104.773C35.4167 105.096 35.3281 105.469 35.3281 105.891C35.3281 106.328 35.4141 106.703 35.5859 107.016C35.763 107.323 36.013 107.56 36.3359 107.727C36.6641 107.888 37.0521 107.969 37.5 107.969C37.9479 107.969 38.3333 107.888 38.6562 107.727C38.9792 107.56 39.2266 107.323 39.3984 107.016C39.5755 106.703 39.6641 106.328 39.6641 105.891ZM40.8516 100.586C40.8516 101.138 40.7057 101.635 40.4141 102.078C40.1224 102.521 39.724 102.87 39.2188 103.125C38.7135 103.38 38.1406 103.508 37.5 103.508C36.849 103.508 36.2682 103.38 35.7578 103.125C35.2526 102.87 34.8568 102.521 34.5703 102.078C34.2839 101.635 34.1406 101.138 34.1406 100.586C34.1406 99.9245 34.2839 99.362 34.5703 98.8984C34.862 98.4349 35.2604 98.0807 35.7656 97.8359C36.2708 97.5911 36.8464 97.4688 37.4922 97.4688C38.1432 97.4688 38.7214 97.5911 39.2266 97.8359C39.7318 98.0807 40.1276 98.4349 40.4141 98.8984C40.7057 99.362 40.8516 99.9245 40.8516 100.586ZM39.4062 100.609C39.4062 100.229 39.3255 99.8932 39.1641 99.6016C39.0026 99.3099 38.7786 99.0807 38.4922 98.9141C38.2057 98.7422 37.8724 98.6562 37.4922 98.6562C37.112 98.6562 36.7786 98.737 36.4922 98.8984C36.2109 99.0547 35.9896 99.2786 35.8281 99.5703C35.6719 99.862 35.5938 100.208 35.5938 100.609C35.5938 101 35.6719 101.341 35.8281 101.633C35.9896 101.924 36.2135 102.151 36.5 102.312C36.7865 102.474 37.1198 102.555 37.5 102.555C37.8802 102.555 38.2109 102.474 38.4922 102.312C38.7786 102.151 39.0026 101.924 39.1641 101.633C39.3255 101.341 39.4062 101 39.4062 100.609ZM43.125 108.234C43.125 107.99 43.2005 107.784 43.3516 107.617C43.5078 107.445 43.7318 107.359 44.0234 107.359C44.3151 107.359 44.5365 107.445 44.6875 107.617C44.8438 107.784 44.9219 107.99 44.9219 108.234C44.9219 108.474 44.8438 108.677 44.6875 108.844C44.5365 109.01 44.3151 109.094 44.0234 109.094C43.7318 109.094 43.5078 109.01 43.3516 108.844C43.2005 108.677 43.125 108.474 43.125 108.234ZM54.3047 102.406V104.141C54.3047 105.073 54.2214 105.859 54.0547 106.5C53.888 107.141 53.6484 107.656 53.3359 108.047C53.0234 108.438 52.6458 108.721 52.2031 108.898C51.7656 109.07 51.2708 109.156 50.7188 109.156C50.2812 109.156 49.8776 109.102 49.5078 108.992C49.138 108.883 48.8047 108.708 48.5078 108.469C48.2161 108.224 47.9661 107.906 47.7578 107.516C47.5495 107.125 47.3906 106.651 47.2812 106.094C47.1719 105.536 47.1172 104.885 47.1172 104.141V102.406C47.1172 101.474 47.2005 100.693 47.3672 100.062C47.5391 99.4323 47.7812 98.9271 48.0938 98.5469C48.4062 98.1615 48.7812 97.8854 49.2188 97.7188C49.6615 97.5521 50.1562 97.4688 50.7031 97.4688C51.1458 97.4688 51.5521 97.5234 51.9219 97.6328C52.2969 97.737 52.6302 97.9062 52.9219 98.1406C53.2135 98.3698 53.4609 98.6771 53.6641 99.0625C53.8724 99.4427 54.0312 99.9089 54.1406 100.461C54.25 101.013 54.3047 101.661 54.3047 102.406ZM52.8516 104.375V102.164C52.8516 101.654 52.8203 101.206 52.7578 100.82C52.7005 100.43 52.6146 100.096 52.5 99.8203C52.3854 99.5443 52.2396 99.3203 52.0625 99.1484C51.8906 98.9766 51.6901 98.8516 51.4609 98.7734C51.237 98.6901 50.9844 98.6484 50.7031 98.6484C50.3594 98.6484 50.0547 98.7135 49.7891 98.8438C49.5234 98.9688 49.2995 99.1693 49.1172 99.4453C48.9401 99.7214 48.8047 100.083 48.7109 100.531C48.6172 100.979 48.5703 101.523 48.5703 102.164V104.375C48.5703 104.885 48.599 105.336 48.6562 105.727C48.7188 106.117 48.8099 106.456 48.9297 106.742C49.0495 107.023 49.1953 107.255 49.3672 107.438C49.5391 107.62 49.737 107.755 49.9609 107.844C50.1901 107.927 50.4427 107.969 50.7188 107.969C51.0729 107.969 51.3828 107.901 51.6484 107.766C51.9141 107.63 52.1354 107.419 52.3125 107.133C52.4948 106.841 52.6302 106.469 52.7188 106.016C52.8073 105.557 52.8516 105.01 52.8516 104.375ZM63.8516 105.172V106.359H55.6328V105.508L60.7266 97.625H61.9062L60.6406 99.9062L57.2734 105.172H63.8516ZM62.2656 97.625V109H60.8203V97.625H62.2656ZM65.3438 108.234C65.3438 107.99 65.4193 107.784 65.5703 107.617C65.7266 107.445 65.9505 107.359 66.2422 107.359C66.5339 107.359 66.7552 107.445 66.9062 107.617C67.0625 107.784 67.1406 107.99 67.1406 108.234C67.1406 108.474 67.0625 108.677 66.9062 108.844C66.7552 109.01 66.5339 109.094 66.2422 109.094C65.9505 109.094 65.7266 109.01 65.5703 108.844C65.4193 108.677 65.3438 108.474 65.3438 108.234ZM76.8359 107.812V109H69.3906V107.961L73.1172 103.812C73.5755 103.302 73.9297 102.87 74.1797 102.516C74.4349 102.156 74.612 101.836 74.7109 101.555C74.8151 101.268 74.8672 100.977 74.8672 100.68C74.8672 100.305 74.7891 99.9661 74.6328 99.6641C74.4818 99.3568 74.2578 99.112 73.9609 98.9297C73.6641 98.7474 73.3047 98.6562 72.8828 98.6562C72.3776 98.6562 71.9557 98.7552 71.6172 98.9531C71.2839 99.1458 71.0339 99.4167 70.8672 99.7656C70.7005 100.115 70.6172 100.516 70.6172 100.969H69.1719C69.1719 100.328 69.3125 99.7422 69.5938 99.2109C69.875 98.6797 70.2917 98.2578 70.8438 97.9453C71.3958 97.6276 72.0755 97.4688 72.8828 97.4688C73.6016 97.4688 74.2161 97.5964 74.7266 97.8516C75.237 98.1016 75.6276 98.4557 75.8984 98.9141C76.1745 99.3672 76.3125 99.8984 76.3125 100.508C76.3125 100.841 76.2552 101.18 76.1406 101.523C76.0312 101.862 75.8776 102.201 75.6797 102.539C75.487 102.878 75.2604 103.211 75 103.539C74.7448 103.867 74.4714 104.19 74.1797 104.508L71.1328 107.812H76.8359ZM85.5234 102.406V104.141C85.5234 105.073 85.4401 105.859 85.2734 106.5C85.1068 107.141 84.8672 107.656 84.5547 108.047C84.2422 108.438 83.8646 108.721 83.4219 108.898C82.9844 109.07 82.4896 109.156 81.9375 109.156C81.5 109.156 81.0964 109.102 80.7266 108.992C80.3568 108.883 80.0234 108.708 79.7266 108.469C79.4349 108.224 79.1849 107.906 78.9766 107.516C78.7682 107.125 78.6094 106.651 78.5 106.094C78.3906 105.536 78.3359 104.885 78.3359 104.141V102.406C78.3359 101.474 78.4193 100.693 78.5859 100.062C78.7578 99.4323 79 98.9271 79.3125 98.5469C79.625 98.1615 80 97.8854 80.4375 97.7188C80.8802 97.5521 81.375 97.4688 81.9219 97.4688C82.3646 97.4688 82.7708 97.5234 83.1406 97.6328C83.5156 97.737 83.849 97.9062 84.1406 98.1406C84.4323 98.3698 84.6797 98.6771 84.8828 99.0625C85.0911 99.4427 85.25 99.9089 85.3594 100.461C85.4688 101.013 85.5234 101.661 85.5234 102.406ZM84.0703 104.375V102.164C84.0703 101.654 84.0391 101.206 83.9766 100.82C83.9193 100.43 83.8333 100.096 83.7188 99.8203C83.6042 99.5443 83.4583 99.3203 83.2812 99.1484C83.1094 98.9766 82.9089 98.8516 82.6797 98.7734C82.4557 98.6901 82.2031 98.6484 81.9219 98.6484C81.5781 98.6484 81.2734 98.7135 81.0078 98.8438C80.7422 98.9688 80.5182 99.1693 80.3359 99.4453C80.1589 99.7214 80.0234 100.083 79.9297 100.531C79.8359 100.979 79.7891 101.523 79.7891 102.164V104.375C79.7891 104.885 79.8177 105.336 79.875 105.727C79.9375 106.117 80.0286 106.456 80.1484 106.742C80.2682 107.023 80.4141 107.255 80.5859 107.438C80.7578 107.62 80.9557 107.755 81.1797 107.844C81.4089 107.927 81.6615 107.969 81.9375 107.969C82.2917 107.969 82.6016 107.901 82.8672 107.766C83.1328 107.63 83.3542 107.419 83.5312 107.133C83.7135 106.841 83.849 106.469 83.9375 106.016C84.026 105.557 84.0703 105.01 84.0703 104.375ZM94.8359 107.812V109H87.3906V107.961L91.1172 103.812C91.5755 103.302 91.9297 102.87 92.1797 102.516C92.4349 102.156 92.612 101.836 92.7109 101.555C92.8151 101.268 92.8672 100.977 92.8672 100.68C92.8672 100.305 92.7891 99.9661 92.6328 99.6641C92.4818 99.3568 92.2578 99.112 91.9609 98.9297C91.6641 98.7474 91.3047 98.6562 90.8828 98.6562C90.3776 98.6562 89.9557 98.7552 89.6172 98.9531C89.2839 99.1458 89.0339 99.4167 88.8672 99.7656C88.7005 100.115 88.6172 100.516 88.6172 100.969H87.1719C87.1719 100.328 87.3125 99.7422 87.5938 99.2109C87.875 98.6797 88.2917 98.2578 88.8438 97.9453C89.3958 97.6276 90.0755 97.4688 90.8828 97.4688C91.6016 97.4688 92.2161 97.5964 92.7266 97.8516C93.237 98.1016 93.6276 98.4557 93.8984 98.9141C94.1745 99.3672 94.3125 99.8984 94.3125 100.508C94.3125 100.841 94.2552 101.18 94.1406 101.523C94.0312 101.862 93.8776 102.201 93.6797 102.539C93.487 102.878 93.2604 103.211 93 103.539C92.7448 103.867 92.4714 104.19 92.1797 104.508L89.1328 107.812H94.8359ZM103.836 107.812V109H96.3906V107.961L100.117 103.812C100.576 103.302 100.93 102.87 101.18 102.516C101.435 102.156 101.612 101.836 101.711 101.555C101.815 101.268 101.867 100.977 101.867 100.68C101.867 100.305 101.789 99.9661 101.633 99.6641C101.482 99.3568 101.258 99.112 100.961 98.9297C100.664 98.7474 100.305 98.6562 99.8828 98.6562C99.3776 98.6562 98.9557 98.7552 98.6172 98.9531C98.2839 99.1458 98.0339 99.4167 97.8672 99.7656C97.7005 100.115 97.6172 100.516 97.6172 100.969H96.1719C96.1719 100.328 96.3125 99.7422 96.5938 99.2109C96.875 98.6797 97.2917 98.2578 97.8438 97.9453C98.3958 97.6276 99.0755 97.4688 99.8828 97.4688C100.602 97.4688 101.216 97.5964 101.727 97.8516C102.237 98.1016 102.628 98.4557 102.898 98.9141C103.174 99.3672 103.312 99.8984 103.312 100.508C103.312 100.841 103.255 101.18 103.141 101.523C103.031 101.862 102.878 102.201 102.68 102.539C102.487 102.878 102.26 103.211 102 103.539C101.745 103.867 101.471 104.19 101.18 104.508L98.1328 107.812H103.836Z" fill="#332317"/>
</g>
<g filter="url(#filter2_d_95_689)">
<rect width="428" height="56" fill="#A77C5D"/>
</g>
<path d="M61.125 26.2734V28.1133H51.8906V26.2734H61.125ZM52.2422 18.9375V36H49.9805V18.9375H52.2422ZM63.0938 18.9375V36H60.8438V18.9375H63.0938ZM69.1406 23.3203V36H66.9609V23.3203H69.1406ZM66.7969 19.957C66.7969 19.6055 66.9023 19.3086 67.1133 19.0664C67.332 18.8242 67.6523 18.7031 68.0742 18.7031C68.4883 18.7031 68.8047 18.8242 69.0234 19.0664C69.25 19.3086 69.3633 19.6055 69.3633 19.957C69.3633 20.293 69.25 20.582 69.0234 20.8242C68.8047 21.0586 68.4883 21.1758 68.0742 21.1758C67.6523 21.1758 67.332 21.0586 67.1133 20.8242C66.9023 20.582 66.7969 20.293 66.7969 19.957ZM80.0039 32.6367C80.0039 32.3242 79.9336 32.0352 79.793 31.7695C79.6602 31.4961 79.3828 31.25 78.9609 31.0312C78.5469 30.8047 77.9219 30.6094 77.0859 30.4453C76.3828 30.2969 75.7461 30.1211 75.1758 29.918C74.6133 29.7148 74.1328 29.4688 73.7344 29.1797C73.3438 28.8906 73.043 28.5508 72.832 28.1602C72.6211 27.7695 72.5156 27.3125 72.5156 26.7891C72.5156 26.2891 72.625 25.8164 72.8438 25.3711C73.0703 24.9258 73.3867 24.5312 73.793 24.1875C74.207 23.8438 74.7031 23.5742 75.2812 23.3789C75.8594 23.1836 76.5039 23.0859 77.2148 23.0859C78.2305 23.0859 79.0977 23.2656 79.8164 23.625C80.5352 23.9844 81.0859 24.4648 81.4688 25.0664C81.8516 25.6602 82.043 26.3203 82.043 27.0469H79.875C79.875 26.6953 79.7695 26.3555 79.5586 26.0273C79.3555 25.6914 79.0547 25.4141 78.6562 25.1953C78.2656 24.9766 77.7852 24.8672 77.2148 24.8672C76.6133 24.8672 76.125 24.9609 75.75 25.1484C75.3828 25.3281 75.1133 25.5586 74.9414 25.8398C74.7773 26.1211 74.6953 26.418 74.6953 26.7305C74.6953 26.9648 74.7344 27.1758 74.8125 27.3633C74.8984 27.543 75.0469 27.7109 75.2578 27.8672C75.4688 28.0156 75.7656 28.1562 76.1484 28.2891C76.5312 28.4219 77.0195 28.5547 77.6133 28.6875C78.6523 28.9219 79.5078 29.2031 80.1797 29.5312C80.8516 29.8594 81.3516 30.2617 81.6797 30.7383C82.0078 31.2148 82.1719 31.793 82.1719 32.4727C82.1719 33.0273 82.0547 33.5352 81.8203 33.9961C81.5938 34.457 81.2617 34.8555 80.8242 35.1914C80.3945 35.5195 79.8789 35.7773 79.2773 35.9648C78.6836 36.1445 78.0156 36.2344 77.2734 36.2344C76.1562 36.2344 75.2109 36.0352 74.4375 35.6367C73.6641 35.2383 73.0781 34.7227 72.6797 34.0898C72.2812 33.457 72.082 32.7891 72.082 32.0859H74.2617C74.293 32.6797 74.4648 33.1523 74.7773 33.5039C75.0898 33.8477 75.4727 34.0938 75.9258 34.2422C76.3789 34.3828 76.8281 34.4531 77.2734 34.4531C77.8672 34.4531 78.3633 34.375 78.7617 34.2188C79.168 34.0625 79.4766 33.8477 79.6875 33.5742C79.8984 33.3008 80.0039 32.9883 80.0039 32.6367ZM90.3281 23.3203V24.9844H83.4727V23.3203H90.3281ZM85.793 20.2383H87.9609V32.8594C87.9609 33.2891 88.0273 33.6133 88.1602 33.832C88.293 34.0508 88.4648 34.1953 88.6758 34.2656C88.8867 34.3359 89.1133 34.3711 89.3555 34.3711C89.5352 34.3711 89.7227 34.3555 89.918 34.3242C90.1211 34.2852 90.2734 34.2539 90.375 34.2305L90.3867 36C90.2148 36.0547 89.9883 36.1055 89.707 36.1523C89.4336 36.207 89.1016 36.2344 88.7109 36.2344C88.1797 36.2344 87.6914 36.1289 87.2461 35.918C86.8008 35.707 86.4453 35.3555 86.1797 34.8633C85.9219 34.3633 85.793 33.6914 85.793 32.8477V20.2383ZM92.0625 29.8008V29.5312C92.0625 28.6172 92.1953 27.7695 92.4609 26.9883C92.7266 26.1992 93.1094 25.5156 93.6094 24.9375C94.1094 24.3516 94.7148 23.8984 95.4258 23.5781C96.1367 23.25 96.9336 23.0859 97.8164 23.0859C98.707 23.0859 99.5078 23.25 100.219 23.5781C100.938 23.8984 101.547 24.3516 102.047 24.9375C102.555 25.5156 102.941 26.1992 103.207 26.9883C103.473 27.7695 103.605 28.6172 103.605 29.5312V29.8008C103.605 30.7148 103.473 31.5625 103.207 32.3438C102.941 33.125 102.555 33.8086 102.047 34.3945C101.547 34.9727 100.941 35.4258 100.23 35.7539C99.5273 36.0742 98.7305 36.2344 97.8398 36.2344C96.9492 36.2344 96.1484 36.0742 95.4375 35.7539C94.7266 35.4258 94.1172 34.9727 93.6094 34.3945C93.1094 33.8086 92.7266 33.125 92.4609 32.3438C92.1953 31.5625 92.0625 30.7148 92.0625 29.8008ZM94.2305 29.5312V29.8008C94.2305 30.4336 94.3047 31.0312 94.4531 31.5938C94.6016 32.1484 94.8242 32.6406 95.1211 33.0703C95.4258 33.5 95.8047 33.8398 96.2578 34.0898C96.7109 34.332 97.2383 34.4531 97.8398 34.4531C98.4336 34.4531 98.9531 34.332 99.3984 34.0898C99.8516 33.8398 100.227 33.5 100.523 33.0703C100.82 32.6406 101.043 32.1484 101.191 31.5938C101.348 31.0312 101.426 30.4336 101.426 29.8008V29.5312C101.426 28.9062 101.348 28.3164 101.191 27.7617C101.043 27.1992 100.816 26.7031 100.512 26.2734C100.215 25.8359 99.8398 25.4922 99.3867 25.2422C98.9414 24.9922 98.418 24.8672 97.8164 24.8672C97.2227 24.8672 96.6992 24.9922 96.2461 25.2422C95.8008 25.4922 95.4258 25.8359 95.1211 26.2734C94.8242 26.7031 94.6016 27.1992 94.4531 27.7617C94.3047 28.3164 94.2305 28.9062 94.2305 29.5312ZM108.492 25.3125V36H106.324V23.3203H108.434L108.492 25.3125ZM112.453 23.25L112.441 25.2656C112.262 25.2266 112.09 25.2031 111.926 25.1953C111.77 25.1797 111.59 25.1719 111.387 25.1719C110.887 25.1719 110.445 25.25 110.062 25.4062C109.68 25.5625 109.355 25.7812 109.09 26.0625C108.824 26.3438 108.613 26.6797 108.457 27.0703C108.309 27.4531 108.211 27.875 108.164 28.3359L107.555 28.6875C107.555 27.9219 107.629 27.2031 107.777 26.5312C107.934 25.8594 108.172 25.2656 108.492 24.75C108.812 24.2266 109.219 23.8203 109.711 23.5312C110.211 23.2344 110.805 23.0859 111.492 23.0859C111.648 23.0859 111.828 23.1055 112.031 23.1445C112.234 23.1758 112.375 23.2109 112.453 23.25ZM118.23 34.6875L121.758 23.3203H124.078L118.992 37.957C118.875 38.2695 118.719 38.6055 118.523 38.9648C118.336 39.332 118.094 39.6797 117.797 40.0078C117.5 40.3359 117.141 40.6016 116.719 40.8047C116.305 41.0156 115.809 41.1211 115.23 41.1211C115.059 41.1211 114.84 41.0977 114.574 41.0508C114.309 41.0039 114.121 40.9648 114.012 40.9336L114 39.1758C114.062 39.1836 114.16 39.1914 114.293 39.1992C114.434 39.2148 114.531 39.2227 114.586 39.2227C115.078 39.2227 115.496 39.1562 115.84 39.0234C116.184 38.8984 116.473 38.6836 116.707 38.3789C116.949 38.082 117.156 37.6719 117.328 37.1484L118.23 34.6875ZM115.641 23.3203L118.934 33.1641L119.496 35.4492L117.938 36.2461L113.273 23.3203H115.641Z" fill="#332317"/>
<path d="M405.174 20.1739C405.174 19.5256 404.648 19 404 19C403.352 19 402.826 19.5256 402.826 20.1739V26.8261H396.174C395.526 26.8261 395 27.3517 395 28C395 28.6483 395.526 29.1739 396.174 29.1739H402.826V35.8261C402.826 36.4744 403.352 37 404 37C404.648 37 405.174 36.4744 405.174 35.8261V29.1739H411.826C412.474 29.1739 413 28.6483 413 28C413 27.3517 412.474 26.8261 411.826 26.8261H405.174V20.1739Z" fill="#332317"/>
<path fill-rule="evenodd" clip-rule="evenodd" d="M31.75 28C31.75 27.5858 31.4142 27.25 31 27.25H17C16.5858 27.25 16.25 27.5858 16.25 28C16.25 28.4142 16.5858 28.75 17 28.75H31C31.4142 28.75 31.75 28.4142 31.75 28Z" fill="#332317"/>
<path fill-rule="evenodd" clip-rule="evenodd" d="M31.75 23C31.75 22.5858 31.4142 22.25 31 22.25H17C16.5858 22.25 16.25 22.5858 16.25 23C16.25 23.4142 16.5858 23.75 17 23.75H31C31.4142 23.75 31.75 23.4142 31.75 23Z" fill="#332317"/>
<path fill-rule="evenodd" clip-rule="evenodd" d="M31.75 33C31.75 32.5858 31.4142 32.25 31 32.25H17C16.5858 32.25 16.25 32.5858 16.25 33C16.25 33.4142 16.5858 33.75 17 33.75H31C31.4142 33.75 31.75 33.4142 31.75 33Z" fill="#332317"/>
</g>
<defs>
<filter id="filter0_d_95_689" x="12" y="129" width="404" height="49" filterUnits="userSpaceOnUse" color-interpolation-filters="sRGB">
<feFlood flood-opacity="0" result="BackgroundImageFix"/>
<feColorMatrix in="SourceAlpha" type="matrix" values="0 0 0 0 0 0 0 0 0 0 0 0 0 0 0 0 0 0 127 0" result="hardAlpha"/>
<feOffset dy="1"/>
<feComposite in2="hardAlpha" operator="out"/>
<feColorMatrix type="matrix" values="0 0 0 0 0.654902 0 0 0 0 0.486275 0 0 0 0 0.364706 0 0 0 1 0"/>
<feBlend mode="normal" in2="BackgroundImageFix" result="effect1_dropShadow_95_689"/>
<feBlend mode="normal" in="SourceGraphic" in2="effect1_dropShadow_95_689" result="shape"/>
</filter>
<filter id="filter1_d_95_689" x="12" y="80" width="404" height="49" filterUnits="userSpaceOnUse" color-interpolation-filters="sRGB">
<feFlood flood-opacity="0" result="BackgroundImageFix"/>
<feColorMatrix in="SourceAlpha" type="matrix" values="0 0 0 0 0 0 0 0 0 0 0 0 0 0 0 0 0 0 127 0" result="hardAlpha"/>
<feOffset dy="1"/>
<feComposite in2="hardAlpha" operator="out"/>
<feColorMatrix type="matrix" values="0 0 0 0 0.654902 0 0 0 0 0.486275 0 0 0 0 0.364706 0 0 0 1 0"/>
<feBlend mode="normal" in2="BackgroundImageFix" result="effect1_dropShadow_95_689"/>
<feBlend mode="normal" in="SourceGraphic" in2="effect1_dropShadow_95_689" result="shape"/>
</filter>
<filter id="filter2_d_95_689" x="-4" y="0" width="436" height="64" filterUnits="userSpaceOnUse" color-interpolation-filters="sRGB">
<feFlood flood-opacity="0" result="BackgroundImageFix"/>
<feColorMatrix in="SourceAlpha" type="matrix" values="0 0 0 0 0 0 0 0 0 0 0 0 0 0 0 0 0 0 127 0" result="hardAlpha"/>
<feOffset dy="4"/>
<feGaussianBlur stdDeviation="2"/>
<feComposite in2="hardAlpha" operator="out"/>
<feColorMatrix type="matrix" values="0 0 0 0 0 0 0 0 0 0 0 0 0 0 0 0 0 0 0.25 0"/>
<feBlend mode="normal" in2="BackgroundImageFix" result="effect1_dropShadow_95_689"/>
<feBlend mode="normal" in="SourceGraphic" in2="effect1_dropShadow_95_689" result="shape"/>
</filter>
<clipPath id="clip0_95_689">
<rect width="428" height="762" fill="white"/>
</clipPath>
<clipPath id="clip1_95_689">
<rect width="404" height="49" fill="white" transform="translate(12 129)"/>
</clipPath>
<clipPath id="clip2_95_689">
<rect width="70" height="24" fill="white" transform="translate(179 141)"/>
</clipPath>
<clipPath id="clip3_95_689">
<rect width="404" height="49" fill="white" transform="translate(12 80)"/>
</clipPath>
<clipPath id="clip4_95_689">
<rect width="70" height="24" fill="white" transform="translate(179 92)"/>
</clipPath>
</defs>
</svg>
